<?xml version="1.0" encoding="iso-8859-1"?>
<!-- Generator: Adobe Illustrator 18.1.1, SVG Export Plug-In . SVG Version: 6.00 Build 0)  -->
<svg version="1.1" id="Capa_1" xmlns="http://www.w3.org/2000/svg" xmlns:xlink="http://www.w3.org/1999/xlink" x="0px" y="0px"
	 viewBox="0 0 32 32" style="enable-background:new 0 0 32 32;" xml:space="preserve">
<g>
	<path id="video" style="fill:#010002;" d="M30,6h-0.887c-0.525,0-1.029,0.207-1.404,0.576L25,9.248V8c0-1.657-1.344-3-3-3H3
		C1.346,5,0,6.345,0,8v6.972V24c0,1.656,1.343,3,3,3h19c1.656,0,3-1.344,3-3v-1.221l2.709,2.672
		c0.375,0.369,0.879,0.576,1.404,0.576H30c1.104,0,2-0.895,2-2V8C32,6.895,31.104,6,30,6z M3,25c-0.552,0-1-0.449-1-1V8
		c0-0.553,0.447-1,1-1h19c0.551,0,1,0.448,1,1v16c0,0.551-0.449,1-1,1H3z M30,24.027h-0.887H29l-4-4V20l-1-1v-6l5-5h0.113H30V24.027
		z"/>
</g>
<g>
</g>
<g>
</g>
<g>
</g>
<g>
</g>
<g>
</g>
<g>
</g>
<g>
</g>
<g>
</g>
<g>
</g>
<g>
</g>
<g>
</g>
<g>
</g>
<g>
</g>
<g>
</g>
<g>
</g>
</svg>
