<?xml version="1.0" encoding="iso-8859-1"?>
<!-- Generator: Adobe Illustrator 18.1.1, SVG Export Plug-In . SVG Version: 6.00 Build 0)  -->
<svg version="1.1" id="Capa_1" xmlns="http://www.w3.org/2000/svg" xmlns:xlink="http://www.w3.org/1999/xlink" x="0px" y="0px"
	 viewBox="0 0 32 32" style="enable-background:new 0 0 32 32;" xml:space="preserve">
<g>
	<g id="Layer_1_1_">
		<g id="fire_1_">
			<path style="fill:#010002;" d="M21.996,9c-0.062,2.675-2.07,4.934-2.07,4.934c0-4.976-3.93-8.934-3.93-8.934
				s-0.053,2.962-2.043,5.948C11.963,3.981,5.991,0,5.991,0c2.986,10.948-0.995,14.93-0.995,22.892c0,4.671,3.954,9.108,10,9.108
				c8.957,0,10.689-3.288,11.615-6.993C27.887,19.906,25.976,13.976,21.996,9z M24.672,24.521C24.029,27.09,23.303,30,14.996,30
				c-5.008,0-8-3.614-8-7.108c0-2.676,0.488-4.873,1.004-7.199c0.656-2.949,1.328-5.968,1.037-9.961
				c3.084,4.269,4.182,9.925,4.182,9.925s2.871-4.031,3.643-5.903C17.453,10.957,17.996,15,17.996,19c0,0,2.656-2.188,4.648-5.478
				C24.742,17.284,25.498,21.217,24.672,24.521z"/>
			<path style="fill:#010002;" d="M22.428,16.795l-0.85,0.985c-1.053,1.228-2.049,2.392-4.708,3.73
				c-0.381-1.142-0.727-2.399-0.727-4.323v-1.709l-1.518,2.378c-0.512,0.811-0.936,1.483-1.568,2.376
				c-0.959-2.162-1.637-3.761-2.152-5.212l-0.479-1.35l-0.52,1.51c-0.66,1.921-1.285,3.735-1.285,8.444c0,0.276,0.223,0.5,0.5,0.5
				c0.275,0,0.5-0.224,0.5-0.5c0-3.609,0.359-5.396,0.84-6.941c0.52,1.322,1.176,2.825,2.037,4.75l0.352,0.784l0.508-0.692
				c0.83-1.13,1.324-1.89,1.865-2.743c0.158,1.479,0.523,2.54,0.885,3.59L16.29,22.9l0.506-0.239
				c2.703-1.284,3.968-2.453,4.972-3.575c0.156,1.864-0.09,3.904-0.674,5.353c-0.104,0.256,0.021,0.547,0.277,0.65
				c0.061,0.024,0.125,0.036,0.188,0.036c0.197,0,0.385-0.118,0.463-0.313c0.775-1.924,1.008-4.664,0.592-6.982L22.428,16.795z"/>
		</g>
	</g>
</g>
<g>
</g>
<g>
</g>
<g>
</g>
<g>
</g>
<g>
</g>
<g>
</g>
<g>
</g>
<g>
</g>
<g>
</g>
<g>
</g>
<g>
</g>
<g>
</g>
<g>
</g>
<g>
</g>
<g>
</g>
</svg>
