<?xml version="1.0" encoding="iso-8859-1"?>
<!-- Generator: Adobe Illustrator 18.1.1, SVG Export Plug-In . SVG Version: 6.00 Build 0)  -->
<svg version="1.1" id="Capa_1" xmlns="http://www.w3.org/2000/svg" xmlns:xlink="http://www.w3.org/1999/xlink" x="0px" y="0px"
	 viewBox="0 0 32 32" style="enable-background:new 0 0 32 32;" xml:space="preserve">
<g>
	<g id="stack">
		<path style="fill:#010002;" d="M31.924,18.455L27.922,3.449C27.68,2.596,26.889,2,26,2H16H6C5.11,2,4.32,2.596,4.078,3.449
			L0.076,18.455C0.025,18.637,0,18.82,0,19v7c0,2.209,1.791,4,4,4h24c2.209,0,4-1.791,4-4v-7C32,18.82,31.975,18.637,31.924,18.455z
			 M30,26c0,1.102-0.898,2-2,2H4c-1.103,0-2-0.898-2-2v-7L6.001,3.999h19.997L30,19V26z"/>
		<path style="fill:#010002;" d="M23.742,6H8.258c-0.453,0-0.85,0.305-0.967,0.743l-3.445,12C3.767,19.044,3.83,19.364,4.02,19.61
			S4.502,20,4.812,20h2.906h1.141H9.38l1.447,2.895c0.34,0.677,1.032,1.105,1.79,1.105h6.766c0.758,0,1.449-0.428,1.789-1.105
			L22.619,20h0.521h1.141h2.906c0.311,0,0.604-0.145,0.793-0.391s0.252-0.566,0.174-0.867l-3.445-12C24.592,6.304,24.195,6,23.742,6
			z M24.281,18h-1.662c-0.762,0-1.447,0.422-1.789,1.105L19.383,22h-6.766l-1.447-2.895C10.828,18.422,10.143,18,9.381,18H7.719
			H5.334L8.258,7h15.484l2.924,11H24.281z"/>
	</g>
</g>
<g>
</g>
<g>
</g>
<g>
</g>
<g>
</g>
<g>
</g>
<g>
</g>
<g>
</g>
<g>
</g>
<g>
</g>
<g>
</g>
<g>
</g>
<g>
</g>
<g>
</g>
<g>
</g>
<g>
</g>
</svg>
