<?xml version="1.0" encoding="iso-8859-1"?>
<!-- Generator: Adobe Illustrator 18.1.1, SVG Export Plug-In . SVG Version: 6.00 Build 0)  -->
<svg version="1.1" id="Capa_1" xmlns="http://www.w3.org/2000/svg" xmlns:xlink="http://www.w3.org/1999/xlink" x="0px" y="0px"
	 viewBox="0 0 32 32" style="enable-background:new 0 0 32 32;" xml:space="preserve">
<g>
	<g>
		<path style="fill:#333333;" d="M31.285,0.469C30.922,0.164,30.467,0,30,0l-0.349,0.031l-17.001,3
			C11.694,3.199,10.999,4.029,10.999,5v17.17C9.984,21.434,8.667,21,7.205,21c-0.85,0-1.7,0.141-2.529,0.416
			C2.778,22.049,1.256,23.318,0.5,24.9c-0.584,1.223-0.659,2.553-0.214,3.746C1.047,30.683,3.209,32,5.794,32
			c0.85,0,1.7-0.139,2.528-0.416c1.897-0.631,3.419-1.9,4.175-3.48c0.325-0.682,0.477-1.396,0.483-2.104h0.018V10l0.348-0.029
			L30,7.032V19.17C28.983,18.434,27.668,18,26.205,18c-0.851,0-1.701,0.141-2.529,0.416c-1.896,0.633-3.42,1.902-4.174,3.484
			c-0.584,1.223-0.66,2.553-0.215,3.746C20.049,27.683,22.209,29,24.795,29c0.852,0,1.701-0.139,2.529-0.416
			c1.896-0.631,3.418-1.9,4.174-3.48c0.326-0.682,0.479-1.396,0.483-2.104H32V2C32,1.41,31.737,0.848,31.285,0.469z M7.687,29.688
			c-2.396,0.799-4.873,0.02-5.529-1.738c-0.658-1.762,0.751-3.834,3.146-4.635c2.396-0.799,4.873-0.02,5.529,1.74
			C11.493,26.814,10.083,28.889,7.687,29.688z M29.959,5L12.958,8V5l17.001-3V5z M26.651,26.688c-2.397,0.799-4.875,0.02-5.53-1.738
			c-0.658-1.762,0.752-3.834,3.146-4.635c2.397-0.799,4.875-0.02,5.53,1.74C30.457,23.814,29.049,25.889,26.651,26.688z"/>
	</g>
</g>
<g>
</g>
<g>
</g>
<g>
</g>
<g>
</g>
<g>
</g>
<g>
</g>
<g>
</g>
<g>
</g>
<g>
</g>
<g>
</g>
<g>
</g>
<g>
</g>
<g>
</g>
<g>
</g>
<g>
</g>
</svg>
