<?xml version="1.0" encoding="iso-8859-1"?>
<!-- Generator: Adobe Illustrator 18.1.1, SVG Export Plug-In . SVG Version: 6.00 Build 0)  -->
<svg version="1.1" id="Capa_1" xmlns="http://www.w3.org/2000/svg" xmlns:xlink="http://www.w3.org/1999/xlink" x="0px" y="0px"
	 viewBox="0 0 32 32" style="enable-background:new 0 0 32 32;" xml:space="preserve">
<g>
	<g>
		<path style="fill:#333333;" d="M29,1.001H3c-1.657,0-3,1.342-3,3v20c0,1.654,1.338,2.994,2.99,2.998H13v1.217l-6.242,0.811
			C6.312,29.138,6,29.539,6,29.999c0,0.553,0.447,1,1,1h18c0.553,0,1-0.447,1-1c0-0.459-0.313-0.859-0.758-0.971L19,28.216v-1.217
			h10.01c1.652-0.004,2.99-1.344,2.99-2.998v-20C32,2.344,30.656,1.001,29,1.001z M30,24.001c0,0.551-0.449,1-1,1H3
			c-0.552,0-1-0.449-1-1v-20c0-0.552,0.448-1,1-1h26c0.551,0,1,0.448,1,1V24.001z M27,4.997L5,5.001c-0.553,0-1,0.443-1,0.996v14
			c0,0.553,0.447,1,1,1h22c0.553,0,1-0.447,1-1v-14C28,5.444,27.553,4.997,27,4.997z M27,20.001H5V5.997h22V20.001z"/>
	</g>
</g>
<g>
</g>
<g>
</g>
<g>
</g>
<g>
</g>
<g>
</g>
<g>
</g>
<g>
</g>
<g>
</g>
<g>
</g>
<g>
</g>
<g>
</g>
<g>
</g>
<g>
</g>
<g>
</g>
<g>
</g>
</svg>
