<?xml version="1.0" encoding="iso-8859-1"?>
<!-- Generator: Adobe Illustrator 18.1.1, SVG Export Plug-In . SVG Version: 6.00 Build 0)  -->
<svg version="1.1" id="Capa_1" xmlns="http://www.w3.org/2000/svg" xmlns:xlink="http://www.w3.org/1999/xlink" x="0px" y="0px"
	 viewBox="0 0 31.989 31.989" style="enable-background:new 0 0 31.989 31.989;" xml:space="preserve">
<g>
	<g>
		<path style="fill:#333333;" d="M30.843,5.814C30.651,5,29.968,4.392,29.138,4.292c-4.36-0.53-8.782-0.798-13.144-0.798
			c-4.361,0-8.783,0.268-13.143,0.797C2.021,4.392,1.34,4.999,1.147,5.814c-1.529,6.423-1.529,12.936,0,19.36
			c0.193,0.814,0.874,1.422,1.704,1.521c2.101,0.256,4.216,0.443,6.331,0.576c-0.114,0.072-0.188,0.146-0.188,0.223
			c0,0.553,3.134,1,7,1s7-0.447,7-1c0-0.076-0.073-0.15-0.188-0.223c2.115-0.133,4.229-0.32,6.33-0.576
			c0.83-0.1,1.513-0.707,1.705-1.521C32.371,18.75,32.371,12.237,30.843,5.814z M28.896,24.711c-8.602,1.043-17.204,1.043-25.805,0
			c-1.463-6.145-1.463-12.29,0-18.434c8.602-1.044,17.204-1.044,25.805,0C30.359,12.421,30.359,18.566,28.896,24.711z
			 M13.994,11.778c0,0.276-0.225,0.508-0.5,0.518l-3.749,0.257c-0.273,0.028-0.527,0.274-0.564,0.546l-0.167,1.895
			c-0.011,0.275-0.245,0.5-0.518,0.5c-0.274,0-0.487-0.225-0.473-0.5l0.305-2.786c0.046-0.272,0.307-0.52,0.58-0.551l4.586-0.359
			C13.77,11.287,13.994,11.502,13.994,11.778z M26.494,11.494c0.828,0,1.5-0.672,1.5-1.5s-0.672-1.5-1.5-1.5
			c-0.827,0-1.5,0.672-1.5,1.5S25.667,11.494,26.494,11.494z M26.494,9.494c0.275,0,0.5,0.225,0.5,0.5s-0.225,0.5-0.5,0.5
			c-0.274,0-0.5-0.225-0.5-0.5S26.219,9.494,26.494,9.494z M28.994,18.994c0,0.275-0.225,0.5-0.5,0.5h-3c-0.276,0-0.5-0.225-0.5-0.5
			c0-0.277,0.224-0.5,0.5-0.5h3C28.77,18.494,28.994,18.717,28.994,18.994z M28.994,15.994c0,0.275-0.225,0.5-0.5,0.5h-3
			c-0.276,0-0.5-0.225-0.5-0.5c0-0.276,0.224-0.5,0.5-0.5h3C28.77,15.494,28.994,15.718,28.994,15.994z M27.994,21.994
			c0,0.275-0.225,0.5-0.5,0.5h-3c-0.276,0-0.5-0.225-0.5-0.5c0-0.277,0.224-0.5,0.5-0.5h3C27.77,21.494,27.994,21.717,27.994,21.994
			z M22.158,8.118c-2.707-0.557-5.455-0.839-8.165-0.839S8.536,7.561,5.828,8.118C5.478,8.19,5.192,8.444,5.079,8.785
			c-1.442,4.381-1.442,8.823,0,13.204c0.112,0.34,0.398,0.594,0.749,0.666c2.708,0.556,5.455,0.839,8.165,0.839
			c2.709,0,5.458-0.283,8.165-0.84c0.353-0.072,0.638-0.326,0.75-0.666c1.441-4.381,1.441-8.823,0-13.204
			C22.796,8.444,22.51,8.19,22.158,8.118z M21.958,21.676c-5.309,1.09-10.619,1.09-15.927,0c-1.381-4.191-1.381-8.385,0-12.579
			c5.309-1.091,10.619-1.091,15.927,0C23.339,13.29,23.339,17.482,21.958,21.676z"/>
	</g>
</g>
<g>
</g>
<g>
</g>
<g>
</g>
<g>
</g>
<g>
</g>
<g>
</g>
<g>
</g>
<g>
</g>
<g>
</g>
<g>
</g>
<g>
</g>
<g>
</g>
<g>
</g>
<g>
</g>
<g>
</g>
</svg>
