<?xml version="1.0" encoding="iso-8859-1"?>
<!-- Generator: Adobe Illustrator 18.1.1, SVG Export Plug-In . SVG Version: 6.00 Build 0)  -->
<svg version="1.1" id="Capa_1" xmlns="http://www.w3.org/2000/svg" xmlns:xlink="http://www.w3.org/1999/xlink" x="0px" y="0px"
	 viewBox="0 0 31.999 31.999" style="enable-background:new 0 0 31.999 31.999;" xml:space="preserve">
<g>
	<g id="Layer_1">
		<path id="t-shirt_1_" style="fill:#010002;" d="M31.25,6.438l-5-4C25.895,2.154,25.453,2,25,2H7C6.546,2,6.105,2.154,5.75,2.438
			l-5,4c-0.654,0.524-0.912,1.4-0.647,2.195l2,6c0.197,0.591,0.659,1.057,1.249,1.259C3.562,15.964,3.782,16,4,16
			c0.348,0,0.693-0.091,1-0.268V28c0,1.104,0.896,2,2,2h18c1.104,0,2-0.896,2-2V15.732C27.307,15.909,27.652,16,28,16
			c0.219,0,0.438-0.036,0.648-0.108c0.59-0.202,1.051-0.668,1.248-1.259l2-6C32.162,7.838,31.904,6.962,31.25,6.438z M19.754,4
			C19.201,5.161,17.736,6,16,6s-3.202-0.839-3.754-2H19.754z M28,14l-3-2v16H7V12l-3,2L2,8l5-4h4.177C11.734,5.722,13.673,7,16,7
			c2.326,0,4.266-1.278,4.822-3H25l5,4L28,14z"/>
	</g>
</g>
<g>
</g>
<g>
</g>
<g>
</g>
<g>
</g>
<g>
</g>
<g>
</g>
<g>
</g>
<g>
</g>
<g>
</g>
<g>
</g>
<g>
</g>
<g>
</g>
<g>
</g>
<g>
</g>
<g>
</g>
</svg>
