<?xml version="1.0" encoding="iso-8859-1"?>
<!-- Generator: Adobe Illustrator 18.1.1, SVG Export Plug-In . SVG Version: 6.00 Build 0)  -->
<svg version="1.1" id="Capa_1" xmlns="http://www.w3.org/2000/svg" xmlns:xlink="http://www.w3.org/1999/xlink" x="0px" y="0px"
	 viewBox="0 0 32 32" style="enable-background:new 0 0 32 32;" xml:space="preserve">
<g>
	<g id="clock">
		<circle style="fill:#010002;" cx="15" cy="10" r="1"/>
		<circle style="fill:#010002;" cx="15" cy="22" r="1"/>
		<circle style="fill:#010002;" cx="9" cy="16" r="1"/>
		<circle style="fill:#010002;" cx="21" cy="16" r="1"/>
		<circle style="fill:#010002;" cx="10.757" cy="20.242" r="1"/>
		<circle style="fill:#010002;" cx="10.757" cy="11.757" r="1"/>
		<circle style="fill:#010002;" cx="19.242" cy="20.242" r="1"/>
		<path style="fill:#010002;" d="M25,14c-0.07,0-0.129,0.033-0.197,0.04c-0.348-1.745-1.17-3.306-2.297-4.594L21.07,1.634
			C20.895,0.687,20.068,0,19.104,0h-8c-0.964,0-1.79,0.688-1.967,1.635l-1.4,7.549C6.057,10.971,5,13.352,5,16
			c0,2.583,1.014,4.905,2.621,6.678l1.412,7.688C9.209,31.312,10.036,32,11,32h8c0.963,0,1.789-0.688,1.967-1.635l1.424-7.682
			c1.189-1.311,2.053-2.92,2.412-4.725C24.871,17.967,24.93,18,25,18c1.104,0,2-0.896,2-2C27,14.895,26.104,14,25,14z M11.104,2h8
			l1,5.387C18.627,6.528,16.936,6,15.104,6c-1.831,0-3.523,0.528-5,1.387L11.104,2z M19,30h-8l-1-5.387
			C11.476,25.471,13.168,26,15,26c1.831,0,3.524-0.529,5-1.387L19,30z M15,24c-4.411,0-8-3.59-8-8c0-4.411,3.589-8,8-8s8,3.589,8,8
			C23,20.41,19.41,24,15,24z"/>
		<path style="fill:#010002;" d="M19.941,11.026c-0.121-0.121-0.316-0.131-0.453-0.021l-5.192,4.285
			C14.105,15.482,14,15.736,14,16.008c0,0.263,0.102,0.512,0.289,0.698s0.438,0.29,0.707,0.292c0.25-0.002,0.51-0.095,0.699-0.277
			l1.848-2.225l2.426-3.021C20.074,11.342,20.062,11.147,19.941,11.026z"/>
	</g>
</g>
<g>
</g>
<g>
</g>
<g>
</g>
<g>
</g>
<g>
</g>
<g>
</g>
<g>
</g>
<g>
</g>
<g>
</g>
<g>
</g>
<g>
</g>
<g>
</g>
<g>
</g>
<g>
</g>
<g>
</g>
</svg>
